<?xml version="1.0" encoding="utf-8"?>
<!-- Generator: Adobe Illustrator 27.0.0, SVG Export Plug-In . SVG Version: 6.00 Build 0)  -->
<svg version="1.1" id="Layer_1" xmlns="http://www.w3.org/2000/svg" xmlns:xlink="http://www.w3.org/1999/xlink"  width="150" height="150"
	 viewBox="0 0 1024 1024" style="enable-background:new 0 0 1080 1080;" xml:space="preserve">
<style type="text/css">
	.st0{fill:#1875BB;}
	.st1{fill:#23AAE1;}
	.st2{fill:#FFFFFF;}
</style>
<path class="st0" d="M649.6,688.1c-3.8,1.1-7.5,2.2-11.2,3.2c-32.8,11.9-65.7,23.8-98.5,35.8c-7.7-2.8-15.3-5.6-23-8.4
	c29.6-10.3,59.2-20.6,88.8-30.9c-7.7-2.6-15.3-5.3-23-7.9c-29.6,10.6-59.2,21.3-88.9,31.9c-22.3-8.3-44.6-16.7-66.9-25
	c37.8-13.2,75.6-26.4,113.4-39.6c9.6,3.1,19.2,6.2,28.9,9.3c-5.2,1.6-10.4,3.1-15.7,4.8c-26.4,8.3-51.7,17.2-75.8,26.7
	c6.4,2,12.8,4,19.2,6c29.3-10.2,58.7-20.4,88-30.6C606.5,671.5,628,679.8,649.6,688.1z"/>
<g>
	<path class="st1" d="M539.6,732.8c-0.1,10.9-0.3,21.9-0.4,32.8L466.9,739c0.2-10.5,0.4-20.9,0.6-31.4
		C491.6,716,515.6,724.4,539.6,732.8z"/>
	<path class="st1" d="M539.6,732.8c-0.2,10.9-0.5,21.9-0.7,32.8l72.6-26.6l0.5-31.4C587.8,716,563.7,724.4,539.6,732.8z"/>
</g>
<g>
	<g>
		<rect x="635.4" y="688.8" class="st0" width="7" height="56.7"/>
	</g>
	<g>
		<path class="st0" d="M638.9,761.9c-3.5,0-6.3-2.8-6.3-6.3v-19.1c0-3.5,2.8-6.3,6.3-6.3s6.3,2.8,6.3,6.3v19.1
			C645.2,759.1,642.4,761.9,638.9,761.9z"/>
	</g>
</g>
<path class="st0" d="M569.1,656.4c2,0.8,4,1.5,6,2.3c-4,1.5-7.4,2.6-9.6,3.3c0,0-3.1,1-10.2,3.2l0,0c-3-0.7-6-1.3-9-2"/>
<rect x="552.8" y="661.3" transform="matrix(0.9441 -0.3296 0.3296 0.9441 -187.1581 223.3133)" class="st2" width="24.3" height="4.5"/>
</svg>
