<?xml version="1.0" encoding="UTF-8"?>
<svg id="Layer_2" data-name="Layer 2" xmlns="http://www.w3.org/2000/svg" viewBox="0 0 456.18 268.07">
  <defs>
    <style>
      .cls-1 {
        fill: #fff;
      }
    </style>
  </defs>
  <g id="Layer_1-2" data-name="Layer 1">
    <g>
      <path class="cls-1" d="M388.77,68.85c-6.4,1.85-12.62,3.7-18.85,5.39-55.21,20.03-110.59,40.06-165.81,60.26-12.96-4.71-25.75-9.43-38.72-14.14,49.83-17.34,99.65-34.68,149.48-52.01-12.96-4.38-25.75-8.92-38.72-13.3-49.83,17.84-99.65,35.85-149.65,53.7-37.54-13.97-75.08-28.11-112.61-42.08C77.52,44.44,141.15,22.22,204.78,0c16.16,5.22,32.32,10.44,48.65,15.65-8.75,2.69-17.51,5.22-26.43,8.08-44.44,13.97-87.03,28.95-127.6,44.94,10.77,3.37,21.55,6.73,32.32,10.1,49.32-17.17,98.81-34.34,148.13-51.51,36.36,13.64,72.55,27.61,108.91,41.58Z"/>
      <g>
        <path class="cls-1" d="M203.6,144.09c-.17,18.35-.5,36.86-.67,55.21l-121.7-44.78c.34-17.67,.67-35.18,1.01-52.86,40.57,14.14,80.97,28.28,121.37,42.42Z"/>
        <path class="cls-1" d="M203.6,144.09c-.34,18.35-.84,36.86-1.18,55.21l122.21-44.78,.84-52.86c-40.74,14.14-81.3,28.28-121.87,42.42Z"/>
      </g>
      <g>
        <rect class="cls-1" x="364.86" y="70.03" width="11.78" height="95.44"/>
        <path class="cls-1" d="M370.76,193.08c-5.89,0-10.6-4.71-10.6-10.6v-32.15c0-5.89,4.71-10.6,10.6-10.6s10.6,4.71,10.6,10.6v32.15c0,5.89-4.71,10.6-10.6,10.6Z"/>
      </g>
      <path class="cls-1" d="M18.35,267.9c-3.54,0-6.73-.34-9.93-1.01-3.2-.67-5.89-1.52-8.42-2.36,.34-2.52,.34-5.05,0-7.57,.84,1.01,2.02,1.68,3.54,2.52,1.51,.67,3.03,1.18,4.71,1.68,1.68,.34,3.54,.67,5.39,1.01,1.85,.17,3.7,.34,5.39,.34,2.52,0,4.21-.34,5.39-.84,1.01-.5,1.68-1.35,1.68-2.36s-.34-1.68-1.01-2.02c-.67-.5-1.85-.84-3.54-1.01s-3.87-.5-6.73-.67c-3.2-.34-5.89-.67-8.08-1.35-2.19-.5-3.87-1.35-5.05-2.52S0,249.05,0,247.19C0,241.3,5.22,238.44,15.82,238.44c2.52,0,4.71,.17,6.56,.34,2.02,.17,3.7,.5,5.39,.84s3.54,.67,5.22,1.18c-.34,2.36-.34,4.71,0,7.07-2.19-1.01-4.88-2.02-7.74-2.69-3.03-.84-6.23-1.18-9.76-1.18-2.52,0-4.38,.34-5.55,.84s-1.68,1.35-1.68,2.36c0,.84,.34,1.68,1.01,2.19s1.68,.84,3.2,1.18,3.37,.5,5.89,.67c3.54,.34,6.4,.67,8.92,1.18,2.36,.5,4.21,1.35,5.55,2.52s1.85,2.69,1.85,4.71c-.34,5.22-5.72,8.25-16.33,8.25Z"/>
      <path class="cls-1" d="M50.83,251.07v5.72c0,1.52,.17,2.69,.5,3.37,.34,.84,1.01,1.35,1.68,1.68s1.51,.5,2.36,.5c1.01,0,1.85-.17,2.86-.34,1.01-.17,1.85-.34,2.69-.5-.17,.84-.34,1.68-.34,2.52s0,1.68,.17,2.52c-1.01,.34-2.19,.5-3.54,.84-1.35,.34-2.69,.34-4.04,.34-1.51,0-3.03-.17-4.38-.67-1.35-.5-2.52-1.18-3.37-2.36s-1.35-2.69-1.35-4.55v-9.09c-1.01,0-1.85,.17-2.86,.17-.84,0-1.85,.17-2.52,.17,.17-.67,.17-1.52,.17-2.52s0-1.85-.17-2.52c.84,.17,1.68,.17,2.52,.17s1.85,.17,2.69,.17c0-1.18-.17-2.19-.17-3.2s-.17-2.02-.34-2.69c1.51-.17,2.86-.34,4.21-.67s2.52-.67,3.7-1.18c0,1.18,0,2.52-.17,3.87,0,1.35-.17,2.69-.17,4.04,1.68,0,3.37,0,5.05-.17s3.2-.17,4.71-.34c-.17,1.01-.17,1.68-.17,2.52,0,.67,0,1.52,.17,2.52-1.51-.17-3.03-.34-4.88-.34-1.51,.17-3.2,0-5.05,0Z"/>
      <path class="cls-1" d="M90.43,246.18c-.34,2.02-.67,4.21-.67,6.73-.17,2.36-.17,4.88,0,7.41s.34,4.88,.67,7.07h-8.58c.34-1.35,.67-2.52,1.01-3.7s.34-2.19,.5-3.2h-.67c-.84,2.19-2.02,4.04-3.7,5.39s-3.7,1.85-5.89,1.85c-1.85,0-3.37-.34-4.38-1.18s-1.85-1.85-2.19-3.2c-.5-1.35-.67-2.69-.67-4.38v-4.21c0-1.35,0-2.69-.17-4.04,0-1.35-.17-2.52-.5-3.7,1.35,0,2.52,0,3.7-.17s2.52-.5,3.7-.84v9.43c0,2.02,.34,3.7,1.01,4.71,.67,1.18,1.85,1.68,3.54,1.68,1.85,0,3.2-.67,4.04-1.85s1.18-2.86,1.18-4.88v-8.25c1.35,0,2.69,0,4.04-.17,1.35,.17,2.69-.17,4.04-.5Z"/>
      <path class="cls-1" d="M123.77,236.76c-.34,1.01-.5,2.36-.67,3.87-.17,1.52-.34,3.37-.5,5.39-.17,2.02-.17,3.87-.17,6.06v6.06c0,2.02,.17,3.7,.17,5.39,.17,1.52,.34,2.86,.5,3.87h-7.74c.17-.84,.34-1.52,.34-2.36s.17-1.68,.17-2.69c-1.18,3.7-4.04,5.72-8.42,5.72-2.36,0-4.38-.5-6.06-1.52-1.68-1.01-3.2-2.36-4.21-4.21-1.01-1.68-1.51-3.7-1.51-6.06,0-2.02,.34-3.87,1.35-5.39,.84-1.52,2.02-2.86,3.54-3.7s3.2-1.35,5.22-1.35c1.85,0,3.2,.34,4.55,1.01,1.35,.67,2.36,1.52,3.2,2.52s1.51,2.19,2.02,3.37h.67c0-2.52-.17-4.55-.17-6.23s-.17-3.03-.17-4.04-.17-1.85-.17-2.52c-.5-.5-.5-1.01-.67-1.52,.84,0,1.85-.17,2.86-.34,1.18-.17,2.19-.34,3.2-.5,1.18-.17,2.02-.5,2.69-.84Zm-13.8,26.93c.67,0,1.35-.17,2.02-.34s1.51-.5,2.19-1.01,1.35-1.35,1.85-2.52c0-1.68-.34-3.2-1.01-4.38-.5-1.35-1.35-2.36-2.36-3.2s-2.36-1.18-4.04-1.18c-1.85,0-3.2,.5-4.21,1.68-1.01,1.01-1.51,2.52-1.51,4.21,0,1.52,.34,2.69,1.01,3.7,.67,1.01,1.51,1.85,2.52,2.36,1.18,.34,2.36,.67,3.53,.67Z"/>
      <path class="cls-1" d="M155.21,259.31c-.17,.5-.17,1.18-.17,2.02v2.19c0,.67,.17,1.35,.17,2.02-1.68,.84-3.54,1.35-5.55,1.85-2.02,.34-4.21,.67-6.23,.67-4.71,0-8.42-1.01-10.77-2.86-2.36-2.02-3.54-4.55-3.54-8.08,0-2.36,.5-4.38,1.51-5.89,1.01-1.68,2.52-2.86,4.38-3.7s4.21-1.35,6.73-1.35c2.02,0,3.87,.34,5.55,.84s3.2,1.35,4.38,2.36c1.18,1.01,2.19,2.19,2.69,3.7,.5,1.52,.67,3.2,.5,5.22-4.38-.17-8.08-.17-11.28-.17-3.03,0-5.55,0-7.07,.17,.34,1.52,1.01,2.69,2.19,3.53,1.18,.84,3.03,1.35,5.39,1.35,1.35,0,2.52-.17,4.04-.5,1.35-.34,2.69-.67,4.04-1.18,1.18-.84,2.19-1.51,3.03-2.19Zm-13.3-8.58c-1.51,0-2.86,.34-3.7,1.35-1.01,.84-1.51,2.02-1.51,3.7,1.51,0,3.2,.17,5.22,.17h5.89c-.17-1.68-.84-2.86-1.85-3.7-1.18-1.01-2.36-1.51-4.04-1.51Z"/>
      <path class="cls-1" d="M161.18,267.39c.5-3.03,.84-6.23,.84-9.76s-.34-6.9-.84-10.1c1.51-.17,3.2-.34,4.71-.67,1.68-.34,2.86-.67,3.87-1.01-.5,1.52-.84,2.86-1.01,4.21-.17,1.18-.34,2.52-.5,4.04h.67c.5-1.52,1.35-2.86,2.19-4.04,1.01-1.18,2.02-2.19,3.37-2.86s2.69-1.01,4.38-1.01c1.85,0,3.37,.34,4.55,1.18s1.85,1.85,2.36,3.2c.5,1.35,.67,2.69,.67,4.38v4.21c0,1.52,0,3.03,.17,4.38,.17,1.52,.34,2.86,.5,4.04h-7.91v-8.42c0-2.19-.5-4.04-1.35-5.22-.84-1.35-2.02-1.85-3.7-1.85s-2.86,.67-3.87,1.85c-.84,1.35-1.35,3.03-1.35,5.39v8.25h-7.74v-.17h0Z"/>
      <path class="cls-1" d="M203.4,251.07v5.72c0,1.52,.17,2.69,.5,3.37,.34,.84,1.01,1.35,1.68,1.68s1.51,.5,2.36,.5c1.01,0,1.85-.17,2.86-.34,1.01-.17,1.85-.34,2.69-.5-.17,.84-.34,1.68-.34,2.52s0,1.68,.17,2.52c-1.01,.34-2.19,.5-3.54,.84-1.35,.34-2.69,.34-4.04,.34-1.51,0-3.03-.17-4.38-.67-1.35-.5-2.52-1.18-3.37-2.36s-1.35-2.69-1.35-4.55v-9.09c-1.01,0-1.85,.17-2.86,.17-.84,0-1.85,.17-2.52,.17,.17-.67,.17-1.52,.17-2.52s0-1.85-.17-2.52c.84,.17,1.68,.17,2.52,.17s1.85,.17,2.69,.17c0-1.18-.17-2.19-.17-3.2s-.17-2.02-.34-2.69c1.51-.17,2.86-.34,4.21-.67s2.52-.67,3.7-1.18c0,1.18,0,2.52-.17,3.87,0,1.35-.17,2.69-.17,4.04,1.68,0,3.37,0,5.05-.17s3.2-.17,4.71-.34c-.17,1.01-.17,1.68-.17,2.52,0,.67,0,1.52,.17,2.52-1.51-.17-3.03-.34-4.88-.34-1.68,.17-3.37,0-5.05,0Z"/>
      <path class="cls-1" d="M251.06,267.9c-3.54,0-6.73-.34-9.93-1.01-3.2-.67-5.89-1.52-8.42-2.36,.34-2.52,.34-5.05,0-7.57,.84,1.01,2.02,1.68,3.54,2.52,1.51,.67,3.03,1.18,4.71,1.68,1.68,.34,3.54,.67,5.39,1.01,1.85,.17,3.7,.34,5.39,.34,2.52,0,4.21-.34,5.39-.84,1.01-.5,1.68-1.35,1.68-2.36s-.34-1.68-1.01-2.02c-.67-.5-1.85-.84-3.54-1.01s-3.87-.5-6.73-.67c-3.2-.34-5.89-.67-8.08-1.35-2.19-.5-3.87-1.35-5.05-2.52s-1.68-2.69-1.68-4.55c0-5.89,5.22-8.75,15.82-8.75,2.52,0,4.71,.17,6.56,.34,2.02,.17,3.7,.5,5.39,.84s3.54,.67,5.22,1.18c-.34,2.36-.34,4.71,0,7.07-2.19-1.01-4.88-2.02-7.74-2.69-3.03-.84-6.23-1.18-9.76-1.18-2.52,0-4.38,.34-5.55,.84-1.18,.5-1.68,1.35-1.68,2.36,0,.84,.34,1.68,1.01,2.19s1.68,.84,3.2,1.18,3.37,.5,5.89,.67c3.54,.34,6.4,.67,8.92,1.18,2.36,.5,4.21,1.35,5.55,2.52s1.85,2.69,1.85,4.71c-.17,5.22-5.56,8.25-16.33,8.25Z"/>
      <path class="cls-1" d="M298.86,259.31c-.17,.5-.17,1.18-.17,2.02v2.19c0,.67,.17,1.35,.17,2.02-1.68,.84-3.54,1.35-5.55,1.85-2.02,.34-4.21,.67-6.23,.67-4.71,0-8.42-1.01-10.77-2.86-2.36-2.02-3.54-4.55-3.54-8.08,0-2.36,.5-4.38,1.51-5.89,1.01-1.68,2.52-2.86,4.38-3.7s4.21-1.35,6.73-1.35c2.02,0,3.87,.34,5.55,.84s3.2,1.35,4.38,2.36c1.18,1.01,2.19,2.19,2.69,3.7,.5,1.52,.67,3.2,.5,5.22-4.38-.17-8.08-.17-11.28-.17-3.03,0-5.55,0-7.07,.17,.34,1.52,1.01,2.69,2.19,3.53,1.18,.84,3.03,1.35,5.39,1.35,1.35,0,2.52-.17,4.04-.5,1.35-.34,2.69-.67,4.04-1.18,1.18-.84,2.19-1.51,3.03-2.19Zm-13.3-8.58c-1.51,0-2.86,.34-3.7,1.35-1.01,.84-1.51,2.02-1.51,3.7,1.51,0,3.2,.17,5.22,.17h5.89c-.17-1.68-.84-2.86-1.85-3.7-1.01-1.01-2.36-1.51-4.04-1.51Z"/>
      <path class="cls-1" d="M313.58,267.39h-8.75c.5-3.03,.84-6.23,.84-9.59s-.34-6.73-.84-10.1c1.51-.17,3.03-.34,4.55-.5,1.51-.34,2.86-.67,3.87-1.18-.34,1.52-.67,2.86-.84,4.21-.17,1.18-.34,2.52-.34,4.04h.67c.67-2.19,1.68-3.87,2.69-5.05,1.18-1.35,2.36-2.02,3.54-2.52,1.35-.5,2.36-.5,3.54-.17-.34,1.01-.5,2.02-.5,3.37s.17,2.69,.5,4.04c-1.68-.5-3.03-.67-4.21-.67-1.35,0-2.52,.34-3.37,.84s-1.35,1.35-1.68,2.36c-.34,1.01-.5,2.02-.5,3.37v3.87c.17,1.01,.51,2.36,.84,3.7Z"/>
      <path class="cls-1" d="M343.97,246.69c1.35,.34,2.52,.34,3.87,.34s2.69-.17,4.21-.34c-1.85,3.53-3.37,6.9-4.71,10.27s-2.52,6.73-3.7,10.27h-9.59c-1.18-3.53-2.36-6.9-3.7-10.27-1.35-3.37-2.86-6.73-4.71-10.44,1.51,.34,3.03,.34,4.38,.34s2.69-.17,4.04-.34c.5,1.52,1.01,3.2,1.68,5.05,.5,1.85,1.01,3.7,1.68,5.55,.5,1.85,1.18,3.7,1.85,5.55,.67-1.85,1.18-3.53,1.68-5.55,.5-1.85,1.18-3.7,1.68-5.55,.34-1.68,.84-3.37,1.35-4.88Z"/>
      <path class="cls-1" d="M360.47,244.33c-3.03,0-4.55-1.01-4.55-3.03s1.51-3.03,4.55-3.03c3.2,0,4.88,1.01,4.88,3.03s-1.68,3.03-4.88,3.03Zm-4.04,2.36c1.35,.34,2.69,.34,4.04,.34s2.69-.17,4.04-.34c-.34,3.53-.5,6.9-.5,10.27s.17,6.73,.5,10.27h-7.91c.34-3.53,.5-6.9,.5-10.27-.17-3.2-.34-6.73-.67-10.27Z"/>
      <path class="cls-1" d="M384.03,267.73c-4.55,0-8.08-1.01-10.44-2.86-2.36-2.02-3.54-4.55-3.54-8.08s1.18-6.06,3.54-8.08,5.89-2.86,10.44-2.86c2.02,0,4.04,.17,5.89,.67,1.85,.34,3.7,1.01,5.22,1.85-.17,.5-.34,1.35-.34,2.19v2.69c0,.84,.17,1.68,.34,2.19-1.18-1.35-2.69-2.36-4.38-3.03-1.68-.84-3.54-1.18-5.55-1.18-2.52,0-4.55,.5-5.89,1.52-1.35,1.01-2.02,2.36-2.02,4.21s.67,3.2,2.02,4.21c1.35,1.01,3.37,1.52,5.89,1.52,2.02,0,3.87-.34,5.55-1.01s3.2-1.52,4.38-2.52c-.17,.5-.34,1.18-.34,2.02v2.36c0,.84,.17,1.52,.34,2.02-1.68,.84-3.37,1.52-5.22,1.85-1.85,.17-3.87,.34-5.89,.34Z"/>
      <path class="cls-1" d="M426.48,259.31c-.17,.5-.17,1.18-.17,2.02v2.19c0,.67,.17,1.35,.17,2.02-1.68,.84-3.54,1.35-5.55,1.85-2.02,.34-4.21,.67-6.23,.67-4.71,0-8.42-1.01-10.77-2.86-2.36-2.02-3.54-4.55-3.54-8.08,0-2.36,.5-4.38,1.51-5.89,1.01-1.68,2.52-2.86,4.38-3.7s4.21-1.35,6.73-1.35c2.02,0,3.87,.34,5.55,.84s3.2,1.35,4.38,2.36c1.18,1.01,2.19,2.19,2.69,3.7,.5,1.52,.67,3.2,.5,5.22-4.38-.17-8.08-.17-11.28-.17-3.03,0-5.55,0-7.07,.17,.34,1.52,1.01,2.69,2.19,3.53,1.18,.84,3.03,1.35,5.39,1.35,1.35,0,2.52-.17,4.04-.5,1.35-.34,2.69-.67,4.04-1.18,1.18-.84,2.19-1.51,3.03-2.19Zm-13.3-8.58c-1.51,0-2.86,.34-3.7,1.35-1.01,.84-1.51,2.02-1.51,3.7,1.51,0,3.2,.17,5.22,.17h5.89c-.17-1.68-.84-2.86-1.85-3.7-1.18-1.01-2.52-1.51-4.04-1.51Z"/>
      <path class="cls-1" d="M444.73,267.9c-2.19,0-4.55-.17-6.73-.67-2.19-.34-4.21-1.01-5.89-1.85,.17-.5,.34-1.18,.34-2.02v-2.19c0-.67-.17-1.35-.34-1.68,.84,.67,1.85,1.18,3.2,1.68s2.86,.84,4.38,1.18,3.2,.34,4.71,.34c3.03,0,4.55-.67,4.55-2.02,0-.67-.34-1.01-1.01-1.35s-1.51-.5-2.52-.5c-1.01-.17-2.19-.17-3.37-.17s-2.52-.17-3.7-.34c-1.18-.17-2.36-.5-3.37-.84s-1.85-1.01-2.52-1.68c-.67-.84-.84-1.85-.84-3.2s.34-2.36,.84-3.03c.5-.84,1.35-1.52,2.19-2.02,1.01-.5,2.02-.84,3.03-1.01,1.01-.17,2.19-.34,3.2-.5,1.18-.17,2.02-.17,3.03-.17,1.51,0,2.86,0,4.04,.17,1.18,.17,2.36,.34,3.54,.67s2.36,.5,3.54,.84c-.34,.84-.5,1.68-.34,2.69,0,1.01,.17,2.02,.5,3.37-1.51-.84-3.37-1.52-5.22-2.02-2.02-.67-4.04-.84-6.56-.84-1.51,0-2.69,.17-3.54,.5-.67,.34-1.18,.84-1.18,1.52s.34,1.18,1.01,1.52,1.51,.5,2.52,.67c1.01,.17,2.19,.17,3.37,.17,1.35,0,2.52,.17,3.7,.17,1.18,.17,2.36,.34,3.37,.67s1.85,1.01,2.52,1.68c.67,.84,1.01,1.85,1.01,3.2,0,2.52-1.01,4.38-3.2,5.39-2.02,1.18-4.71,1.68-8.25,1.68Z"/>
    </g>
  </g>
</svg>