<svg width="388" height="244" viewBox="0 0 388 244" fill="none" xmlns="http://www.w3.org/2000/svg">
<path d="M40 56C40 47.1634 47.1634 40 56 40H332C340.837 40 348 47.1634 348 56V188C348 196.837 340.837 204 332 204H56C47.1634 204 40 196.837 40 188V56Z" fill="white"/>
<path fill-rule="evenodd" clip-rule="evenodd" d="M113 68C113 72.9706 108.971 77 104 77C99.0294 77 95 72.9706 95 68C95 63.0294 99.0294 59 104 59C108.971 59 113 63.0294 113 68ZM104 74C103.448 74 103 73.5523 103 73V69H99C98.4477 69 98 68.5523 98 68C98 67.4477 98.4477 67 99 67H103V63C103 62.4477 103.448 62 104 62C104.552 62 105 62.4477 105 63V67H109C109.552 67 110 67.4477 110 68C110 68.5523 109.552 69 109 69H105V73C105 73.5523 104.552 74 104 74Z" fill="#222222"/>
<rect width="24" height="24" transform="translate(56 56)" fill="white"/>
<path fill-rule="evenodd" clip-rule="evenodd" d="M77 68C77 72.9706 72.9706 77 68 77C63.0294 77 59 72.9706 59 68C59 63.0294 63.0294 59 68 59C72.9706 59 77 63.0294 77 68ZM68 73.5C67.7239 73.5 67.5 73.2761 67.5 73V68.5H63C62.7239 68.5 62.5 68.2761 62.5 68C62.5 67.7239 62.7239 67.5 63 67.5H67.5V63C67.5 62.7239 67.7239 62.5 68 62.5C68.2761 62.5 68.5 62.7239 68.5 63V67.5H73C73.2761 67.5 73.5 67.7239 73.5 68C73.5 68.2761 73.2761 68.5 73 68.5H68.5V73C68.5 73.2761 68.2761 73.5 68 73.5Z" fill="#222222"/>
<path fill-rule="evenodd" clip-rule="evenodd" d="M113 104C113 108.971 108.971 113 104 113C99.0294 113 95 108.971 95 104C95 99.0294 99.0294 95 104 95C108.971 95 113 99.0294 113 104ZM103 110V109V105H99H98V103H99H103V99V98H105V99V103H109H110V105H109H105V109V110H103Z" fill="#222222"/>
<rect width="24" height="24" transform="translate(56 92)" fill="white"/>
<path fill-rule="evenodd" clip-rule="evenodd" d="M77 104C77 108.971 72.9706 113 68 113C63.0294 113 59 108.971 59 104C59 99.0294 63.0294 95 68 95C72.9706 95 77 99.0294 77 104ZM67.5 109.5V109V104.5H63H62.5V103.5H63H67.5V99V98.5H68.5V99V103.5H73H73.5V104.5H73H68.5V109V109.5H67.5Z" fill="#222222"/>
<path fill-rule="evenodd" clip-rule="evenodd" d="M113 140C113 144.971 108.971 149 104 149C99.0294 149 95 144.971 95 140C95 135.029 99.0294 131 104 131C108.971 131 113 135.029 113 140ZM105 141V145H103V141H99V139H103V135H105V139H109V141H105Z" fill="#222222"/>
<rect width="24" height="24" transform="translate(56 128)" fill="white"/>
<path fill-rule="evenodd" clip-rule="evenodd" d="M77 140C77 144.971 72.9706 149 68 149C63.0294 149 59 144.971 59 140C59 135.029 63.0294 131 68 131C72.9706 131 77 135.029 77 140ZM68.5 140.5V145H67.5V140.5H63V139.5H67.5V135H68.5V139.5H73V140.5H68.5Z" fill="#222222"/>
<path d="M140 62L140 74" stroke="#33363F" stroke-width="2" stroke-linecap="round"/>
<path d="M146 68L134 68" stroke="#33363F" stroke-width="2" stroke-linecap="round"/>
<circle cx="212" cy="68" r="9" fill="#7E869E" fill-opacity="0.25"/>
<path d="M212 64L212 72" stroke="#222222" stroke-width="1.2" stroke-linecap="round"/>
<path d="M216 68L208 68" stroke="#222222" stroke-width="1.2" stroke-linecap="round"/>
<circle cx="284" cy="68" r="8.4" stroke="#7E869E" stroke-opacity="0.25" stroke-width="1.2"/>
<path d="M284 64L284 72" stroke="#222222" stroke-width="1.2" stroke-linecap="round"/>
<path d="M288 68L280 68" stroke="#222222" stroke-width="1.2" stroke-linecap="round"/>
<rect width="24" height="24" transform="translate(164 56)" fill="white"/>
<circle cx="176" cy="68" r="8.5" fill="#2A4157" fill-opacity="0.24" stroke="#222222"/>
<path d="M176 64L176 72" stroke="#222222" stroke-width="1.2" stroke-linecap="round"/>
<path d="M180 68L172 68" stroke="#222222" stroke-width="1.2" stroke-linecap="round"/>
<rect width="24" height="24" transform="translate(236 56)" fill="white"/>
<path d="M241.022 63.1435C238.71 66.4581 239.032 71.0529 241.99 74.0104C245.309 77.3299 250.691 77.3299 254.01 74.0104C257.33 70.691 257.33 65.3091 254.01 61.9896C251.053 59.0321 246.458 58.7096 243.144 61.0222" stroke="#222222" stroke-linecap="round"/>
<path d="M248 64L248 72" stroke="#222222" stroke-width="1.2" stroke-linecap="round"/>
<path d="M252 68L244 68" stroke="#222222" stroke-width="1.2" stroke-linecap="round"/>
<path d="M320 62L320 74" stroke="#222222" stroke-linecap="round"/>
<path d="M326 68L314 68" stroke="#222222" stroke-linecap="round"/>
<path d="M140 98L140 110" stroke="#33363F" stroke-width="2" stroke-linecap="square" stroke-linejoin="round"/>
<path d="M146 104L134 104" stroke="#33363F" stroke-width="2" stroke-linecap="square" stroke-linejoin="round"/>
<circle cx="212" cy="104" r="9" fill="#7E869E" fill-opacity="0.25"/>
<path d="M212 100L212 108" stroke="#222222" stroke-width="1.2" stroke-linecap="square" stroke-linejoin="round"/>
<path d="M216 104L208 104" stroke="#222222" stroke-width="1.2" stroke-linecap="square" stroke-linejoin="round"/>
<path d="M203 171C203 168.791 204.791 167 207 167H217C219.209 167 221 168.791 221 171V181C221 183.209 219.209 185 217 185H207C204.791 185 203 183.209 203 181V171Z" fill="#7E869E" fill-opacity="0.25"/>
<path d="M212 172L212 180" stroke="#222222" stroke-linejoin="round"/>
<path d="M216 176L208 176" stroke="#222222" stroke-linejoin="round"/>
<path d="M275.5 171C275.5 169.067 277.067 167.5 279 167.5H289C290.933 167.5 292.5 169.067 292.5 171V181C292.5 182.933 290.933 184.5 289 184.5H279C277.067 184.5 275.5 182.933 275.5 181V171Z" stroke="#7E869E" stroke-opacity="0.25"/>
<path d="M284 172L284 180" stroke="#222222" stroke-linejoin="round"/>
<path d="M288 176L280 176" stroke="#222222" stroke-linejoin="round"/>
<rect width="24" height="24" transform="translate(164 164)" fill="white"/>
<path d="M167.5 171C167.5 170.043 167.501 169.376 167.569 168.872C167.635 168.383 167.755 168.124 167.939 167.939C168.124 167.755 168.383 167.635 168.872 167.569C169.376 167.501 170.043 167.5 171 167.5H181C181.957 167.5 182.624 167.501 183.128 167.569C183.617 167.635 183.876 167.755 184.061 167.939C184.245 168.124 184.365 168.383 184.431 168.872C184.499 169.376 184.5 170.043 184.5 171V181C184.5 181.957 184.499 182.624 184.431 183.128C184.365 183.617 184.245 183.876 184.061 184.061C183.876 184.245 183.617 184.365 183.128 184.431C182.624 184.499 181.957 184.5 181 184.5H171C170.043 184.5 169.376 184.499 168.872 184.431C168.383 184.365 168.124 184.245 167.939 184.061C167.755 183.876 167.635 183.617 167.569 183.128C167.501 182.624 167.5 181.957 167.5 181V171Z" fill="#2A4157" fill-opacity="0.24" stroke="#222222"/>
<path d="M176 172L176 180" stroke="#222222" stroke-linejoin="round"/>
<path d="M180 176L172 176" stroke="#222222" stroke-linejoin="round"/>
<rect width="24" height="24" transform="translate(236 164)" fill="white"/>
<path d="M244.5 167.5H241.5C240.395 167.5 239.5 168.395 239.5 169.5V182.5C239.5 183.605 240.395 184.5 241.5 184.5H254.5C255.605 184.5 256.5 183.605 256.5 182.5V169.5C256.5 168.395 255.605 167.5 254.5 167.5H247.5" stroke="#222222" stroke-linecap="round"/>
<path d="M248 172L248 180" stroke="#222222" stroke-linejoin="round"/>
<path d="M252 176L244 176" stroke="#222222" stroke-linejoin="round"/>
<path d="M311.5 171C311.5 169.067 313.067 167.5 315 167.5H325C326.933 167.5 328.5 169.067 328.5 171V181C328.5 182.933 326.933 184.5 325 184.5H315C313.067 184.5 311.5 182.933 311.5 181V171Z" stroke="#222222"/>
<path d="M320 172L320 180" stroke="#222222" stroke-linejoin="round"/>
<path d="M324 176L316 176" stroke="#222222" stroke-linejoin="round"/>
<path d="M131 171C131 168.791 132.791 167 135 167H145C147.209 167 149 168.791 149 171V181C149 183.209 147.209 185 145 185H135C132.791 185 131 183.209 131 181V171Z" stroke="#222222" stroke-width="2"/>
<path d="M140 172L140 180" stroke="#222222" stroke-width="2" stroke-linecap="square" stroke-linejoin="round"/>
<path d="M144 176L136 176" stroke="#222222" stroke-width="2" stroke-linecap="square" stroke-linejoin="round"/>
<path fill-rule="evenodd" clip-rule="evenodd" d="M99 167C96.7909 167 95 168.791 95 171V181C95 183.209 96.7909 185 99 185H109C111.209 185 113 183.209 113 181V171C113 168.791 111.209 167 109 167H99ZM103 171V175L99 175V177H103V181H105V177H109V175H105V171H103Z" fill="#222222"/>
<rect width="24" height="24" transform="translate(56 164)" fill="white"/>
<path fill-rule="evenodd" clip-rule="evenodd" d="M63 167C60.7909 167 59 168.791 59 171V181C59 183.209 60.7909 185 63 185H73C75.2091 185 77 183.209 77 181V171C77 168.791 75.2091 167 73 167H63ZM67.5 171V175.5H63V176.5H67.5V181H68.5V176.5H73V175.5H68.5V171H67.5Z" fill="#222222"/>
<circle cx="284" cy="104" r="8.4" stroke="#7E869E" stroke-opacity="0.25" stroke-width="1.2"/>
<path d="M284 100L284 108" stroke="#222222" stroke-width="1.2" stroke-linecap="square"/>
<path d="M288 104L280 104" stroke="#222222" stroke-width="1.2" stroke-linecap="square"/>
<rect width="24" height="24" transform="translate(164 92)" fill="white"/>
<circle cx="176" cy="104" r="8.5" fill="#2A4157" fill-opacity="0.24" stroke="#222222"/>
<path d="M176 100L176 108" stroke="#222222" stroke-width="1.2" stroke-linecap="square"/>
<path d="M180 104L172 104" stroke="#222222" stroke-width="1.2" stroke-linecap="square"/>
<rect width="24" height="24" transform="translate(236 92)" fill="white"/>
<path d="M248 100L248 108" stroke="#222222" stroke-width="1.2" stroke-linecap="square"/>
<path d="M252 104L244 104" stroke="#222222" stroke-width="1.2" stroke-linecap="square"/>
<path d="M241.022 99.1435C238.71 102.458 239.032 107.053 241.99 110.01C245.309 113.33 250.691 113.33 254.01 110.01C257.33 106.691 257.33 101.309 254.01 97.9896C251.053 95.0321 246.458 94.7096 243.144 97.0222" stroke="#222222" stroke-linecap="round"/>
<path d="M320 98L320 110" stroke="#222222" stroke-linecap="square" stroke-linejoin="round"/>
<path d="M326 104L314 104" stroke="#222222" stroke-linecap="square" stroke-linejoin="round"/>
<circle cx="140" cy="140" r="9" stroke="#33363F" stroke-width="2"/>
<path d="M140 143L140 137" stroke="#33363F" stroke-width="2" stroke-linecap="square"/>
<path d="M143 140L137 140" stroke="#33363F" stroke-width="2" stroke-linecap="square"/>
<circle cx="212" cy="140" r="9" fill="#7E869E" fill-opacity="0.25"/>
<path d="M212 143L212 137" stroke="#222222" stroke-width="1.2" stroke-linecap="square"/>
<path d="M215 140L209 140" stroke="#222222" stroke-width="1.2" stroke-linecap="square"/>
<circle cx="284" cy="140" r="8.4" stroke="#7E869E" stroke-opacity="0.25" stroke-width="1.2"/>
<path d="M284 143L284 137" stroke="#222222" stroke-width="1.2" stroke-linecap="square"/>
<path d="M287 140L281 140" stroke="#222222" stroke-width="1.2" stroke-linecap="square"/>
<rect width="24" height="24" transform="translate(164 128)" fill="white"/>
<circle cx="176" cy="140" r="8.5" fill="#2A4157" fill-opacity="0.24" stroke="#222222"/>
<path d="M176 143L176 137" stroke="#222222" stroke-width="1.2" stroke-linecap="square"/>
<path d="M179 140L173 140" stroke="#222222" stroke-width="1.2" stroke-linecap="square"/>
<rect width="24" height="24" transform="translate(236 128)" fill="white"/>
<path d="M248 143L248 137" stroke="#222222" stroke-width="1.2" stroke-linecap="square"/>
<path d="M251 140L245 140" stroke="#222222" stroke-width="1.2" stroke-linecap="square"/>
<path d="M252.856 133.022C249.542 130.71 244.947 131.032 241.99 133.99C238.67 137.309 238.67 142.691 241.99 146.01C245.309 149.33 250.691 149.33 254.01 146.01C256.968 143.053 257.29 138.458 254.978 135.144" stroke="#222222" stroke-linecap="round"/>
<circle cx="320" cy="140" r="9" stroke="#222222"/>
<path d="M320 143L320 137" stroke="#222222" stroke-linecap="square"/>
<path d="M323 140L317 140" stroke="#222222" stroke-linecap="square"/>
<rect x="40" y="4" width="33.0938" height="30" rx="3" fill="white"/>
<rect x="40.5" y="4.5" width="32.0938" height="29" rx="2.5" stroke="black" stroke-opacity="0.2"/>
<path d="M47.2969 22H46.2813L49.2188 14H50.2188L53.1563 22H52.1406L49.75 15.2656H49.6875L47.2969 22ZM47.6719 18.875H51.7656V19.7344H47.6719V18.875ZM56.543 22.125C56.043 22.125 55.6016 21.9987 55.2188 21.7461C54.8359 21.4909 54.5365 21.1315 54.3203 20.668C54.1042 20.2018 53.9961 19.651 53.9961 19.0156C53.9961 18.3854 54.1042 17.8385 54.3203 17.375C54.5365 16.9115 54.8372 16.5534 55.2227 16.3008C55.6081 16.0482 56.0534 15.9219 56.5586 15.9219C56.9492 15.9219 57.2578 15.987 57.4844 16.1172C57.7135 16.2448 57.888 16.3906 58.0078 16.5547C58.1302 16.7161 58.2253 16.849 58.293 16.9531H58.3711V14H59.293V22H58.4023V21.0781H58.293C58.2253 21.1875 58.1289 21.3255 58.0039 21.4922C57.8789 21.6562 57.7005 21.8034 57.4688 21.9336C57.237 22.0612 56.9284 22.125 56.543 22.125ZM56.668 21.2969C57.0378 21.2969 57.3503 21.2005 57.6055 21.0078C57.8607 20.8125 58.0547 20.543 58.1875 20.1992C58.3203 19.8529 58.3867 19.4531 58.3867 19C58.3867 18.5521 58.3216 18.1602 58.1914 17.8242C58.0612 17.4857 57.8685 17.2227 57.6133 17.0352C57.3581 16.8451 57.043 16.75 56.668 16.75C56.2773 16.75 55.9518 16.8503 55.6914 17.0508C55.4336 17.2487 55.2396 17.5182 55.1094 17.8594C54.9818 18.1979 54.918 18.5781 54.918 19C54.918 19.4271 54.9831 19.8151 55.1133 20.1641C55.2461 20.5104 55.4414 20.7865 55.6992 20.9922C55.9596 21.1953 56.2826 21.2969 56.668 21.2969ZM63.375 22.125C62.875 22.125 62.4336 21.9987 62.0508 21.7461C61.668 21.4909 61.3685 21.1315 61.1523 20.668C60.9362 20.2018 60.8281 19.651 60.8281 19.0156C60.8281 18.3854 60.9362 17.8385 61.1523 17.375C61.3685 16.9115 61.6693 16.5534 62.0547 16.3008C62.4401 16.0482 62.8854 15.9219 63.3906 15.9219C63.7813 15.9219 64.0898 15.987 64.3164 16.1172C64.5456 16.2448 64.7201 16.3906 64.8398 16.5547C64.9622 16.7161 65.0573 16.849 65.125 16.9531H65.2031V14H66.125V22H65.2344V21.0781H65.125C65.0573 21.1875 64.9609 21.3255 64.8359 21.4922C64.7109 21.6562 64.5326 21.8034 64.3008 21.9336C64.069 22.0612 63.7604 22.125 63.375 22.125ZM63.5 21.2969C63.8698 21.2969 64.1823 21.2005 64.4375 21.0078C64.6927 20.8125 64.8867 20.543 65.0195 20.1992C65.1523 19.8529 65.2188 19.4531 65.2188 19C65.2188 18.5521 65.1536 18.1602 65.0234 17.8242C64.8932 17.4857 64.7005 17.2227 64.4453 17.0352C64.1901 16.8451 63.875 16.75 63.5 16.75C63.1094 16.75 62.7839 16.8503 62.5234 17.0508C62.2656 17.2487 62.0716 17.5182 61.9414 17.8594C61.8138 18.1979 61.75 18.5781 61.75 19C61.75 19.4271 61.8151 19.8151 61.9453 20.1641C62.0781 20.5104 62.2734 20.7865 62.5313 20.9922C62.7917 21.1953 63.1146 21.2969 63.5 21.2969Z" fill="black"/>
</svg>
